<?xml version="1.0" encoding="UTF-8"?>
<!DOCTYPE svg PUBLIC "-//W3C//DTD SVG 1.1//EN" "http://www.w3.org/Graphics/SVG/1.1/DTD/svg11.dtd">
<!-- Creator: CorelDRAW X7 -->
<svg xmlns="http://www.w3.org/2000/svg" xml:space="preserve" width="162.56mm" height="91.4398mm" version="1.1" style="shape-rendering:geometricPrecision; text-rendering:geometricPrecision; image-rendering:optimizeQuality; fill-rule:evenodd; clip-rule:evenodd"
viewBox="0 0 16256 9144"
 xmlns:xlink="http://www.w3.org/1999/xlink">
 <defs>
  <style type="text/css">
   <![CDATA[
    .fil3 {fill:none}
    .fil0 {fill:black;fill-rule:nonzero;fill-opacity:0.101961}
    .fil1 {fill:aqua;fill-rule:nonzero;fill-opacity:0.101961}
    .fil2 {fill:red;fill-rule:nonzero;fill-opacity:0.101961}
   ]]>
  </style>
   <clipPath id="id0">
    <path d="M0 0l16256 0 0 9144 -16256 0 0 -9144z"/>
   </clipPath>
 </defs>
 <g id="Layer_x0020_1">
  <metadata id="CorelCorpID_0Corel-Layer"/>
  <g>
  </g>
  <g style="clip-path:url(#id0)">
   <g>
    <polygon class="fil0" points="16100,7813 16334,7545 16357,7518 16380,7545 16590,7786 16801,7544 16824,7518 16847,7544 17059,7786 17308,7537 17352,7580 17079,7853 17056,7876 17034,7851 16824,7611 16613,7852 16590,7879 16567,7852 16357,7611 16146,7853 "/>
    <path class="fil1" d="M15305 8117l-160 299 351 -25 -191 -274zm-240 319l210 -392 23 -44 29 41 251 360 31 44 -54 4 -461 32 -55 4 26 -49z"/>
    <path class="fil1" d="M17122 6722l-41 324 -4 30 -30 -4 -324 -40 -31 -4 4 -30 41 -324 3 -31 31 4 324 40 30 4 -3 31zm-98 286l33 -264 -263 -32 -33 263 263 33z"/>
    <polygon class="fil2" points="14903,5517 15137,5250 15160,5223 15183,5250 15394,5491 15604,5249 15627,5223 15650,5249 15862,5491 16111,5241 16155,5285 15882,5558 15859,5581 15837,5556 15627,5316 15417,5557 15394,5584 15371,5557 15160,5316 14949,5558 "/>
    <polygon class="fil0" points="16204,9709 15993,9467 15783,9708 15760,9735 15737,9708 15526,9467 15316,9707 15295,9732 15272,9709 14999,9436 15042,9393 15292,9642 15503,9400 15526,9374 15549,9400 15760,9642 15970,9401 15993,9374 16016,9401 16250,9669 "/>
    <path class="fil0" d="M17255 9194l-88 436 -10 54 -41 -38 -334 -318 -40 -37 53 -15 422 -117 48 -14 -10 49zm-137 370l67 -333 -322 90 255 243z"/>
    <polygon class="fil1" points="16378,9902 16544,10006 16647,9840 16699,9873 16596,10038 16761,10141 16729,10193 16563,10090 16460,10256 16408,10223 16511,10058 16346,9954 "/>
    <polygon class="fil2" points="14324,3986 14534,4228 14745,3987 14768,3960 14791,3987 15002,4228 15211,3988 15258,4028 15025,4295 15002,4321 14979,4295 14768,4053 14557,4294 14534,4321 14511,4294 14278,4026 "/>
    <path class="fil1" d="M13342 8978l210 392 26 48 -55 -3 -461 -33 -54 -3 31 -45 251 -360 29 -40 23 44zm130 372l-160 -300 -192 275 352 25z"/>
    <path class="fil2" d="M16017 6471l-180 195 195 180 180 -195 -195 -180zm-246 176l222 -240 20 -22 23 20 240 222 22 21 -20 22 -222 240 -21 23 -22 -21 -240 -222 -23 -20 21 -23z"/>
    <path class="fil1" d="M17030 8740l-177 -275 -17 -25 26 -17 274 -177 26 -17 16 26 178 274 16 26 -25 16 -275 178 -25 16 -17 -25zm-109 -282l144 223 223 -145 -145 -222 -222 144z"/>
    <polygon class="fil0" points="11464,10749 11698,10481 11721,10455 11744,10481 11954,10722 12165,10481 12188,10455 12211,10481 12422,10723 12672,10473 12715,10517 12443,10789 12419,10813 12398,10788 12188,10548 11977,10789 11954,10815 11931,10789 11721,10548 11510,10790 "/>
    <path class="fil2" d="M15315 10283l-180 195 195 180 180 -195 -195 -180zm-246 176l222 -240 21 -23 22 21 240 222 23 20 -21 23 -222 240 -21 22 -22 -20 -240 -222 -23 -21 21 -22z"/>
    <polygon class="fil1" points="14144,10152 13979,10255 14082,10420 14030,10453 13927,10287 13761,10391 13729,10339 13894,10235 13791,10070 13843,10037 13946,10203 14112,10100 "/>
    <polygon class="fil1" points="9447,5883 9657,6124 9868,5883 9891,5856 9914,5883 10126,6125 10375,5875 10419,5918 10146,6191 10123,6214 10101,6190 9891,5949 9680,6191 9657,6217 9634,6191 9401,5923 "/>
    <path class="fil2" d="M9635 4386l221 240 21 23 -23 21 -240 221 -22 21 -21 -23 -221 -239 -21 -23 22 -21 240 -221 23 -21 21 22zm155 259l-180 -195 -195 181 180 194 195 -180z"/>
    <polygon class="fil0" points="11271,9962 11060,9720 10850,9961 10827,9988 10804,9961 10593,9720 10383,9960 10362,9985 10338,9962 10066,9689 10109,9645 10359,9895 10570,9653 10593,9627 10616,9653 10827,9895 11037,9654 11060,9627 11083,9654 11317,9921 "/>
    <polygon class="fil0" points="9780,6627 9946,6731 10049,6565 10101,6597 9998,6763 10163,6866 10131,6918 9965,6815 9862,6980 9810,6948 9913,6783 9748,6679 "/>
    <polygon class="fil1" points="13041,6891 13207,6995 13310,6829 13362,6861 13259,7027 13424,7130 13392,7182 13226,7079 13123,7244 13071,7212 13174,7047 13009,6943 "/>
    <path class="fil1" d="M10444 7330l210 392 26 49 -55 -4 -461 -32 -54 -4 31 -44 251 -360 29 -41 23 44zm130 372l-160 -299 -191 275 351 24z"/>
    <path class="fil1" d="M8447 3867l-144 223 223 145 144 -223 -223 -145zm-212 216l178 -274 16 -26 26 17 274 177 26 16 -17 26 -177 274 -17 26 -26 -17 -274 -177 -25 -17 16 -25z"/>
    <path class="fil1" d="M8559 4808l33 264 263 -33 -33 -264 -263 33zm-24 302l-41 -325 -4 -30 31 -4 324 -40 30 -4 4 30 41 325 4 30 -31 4 -324 40 -30 4 -4 -30z"/>
    <polygon class="fil2" points="10220,3706 10009,3465 9799,3706 9776,3732 9753,3706 9542,3464 9332,3704 9310,3729 9287,3706 9014,3433 9058,3390 9307,3640 9519,3397 9542,3371 9565,3397 9776,3639 9986,3398 10009,3372 10032,3398 10266,3666 "/>
    <polygon class="fil0" points="8704,8813 8938,8545 8961,8519 8984,8545 9195,8786 9405,8545 9428,8518 9451,8545 9663,8787 9912,8537 9956,8581 9683,8853 9660,8876 9638,8852 9428,8611 9218,8853 9195,8879 9171,8853 8961,8612 8750,8853 "/>
    <path class="fil2" d="M12555 8347l-180 195 195 180 180 -195 -195 -180zm-246 176l222 -240 21 -23 22 21 240 221 23 21 -21 23 -222 240 -20 22 -23 -21 -240 -221 -22 -21 20 -22z"/>
    <path class="fil0" d="M8989 7261l67 333 256 -243 -323 -90zm18 400l-87 -436 -10 -49 48 13 422 118 52 14 -39 37 -335 319 -40 38 -11 -54z"/>
    <polygon class="fil1" points="11385,8216 11219,8319 11322,8484 11270,8517 11167,8351 11002,8454 10969,8402 11135,8299 11031,8134 11083,8101 11187,8267 11352,8164 "/>
    <polygon class="fil0" points="15394,1417 15628,1149 15651,1123 15674,1149 15884,1390 16095,1148 16118,1122 16141,1148 16353,1391 16602,1141 16646,1184 16373,1457 16350,1480 16328,1455 16118,1215 15907,1457 15884,1483 15861,1457 15651,1216 15440,1457 "/>
    <path class="fil1" d="M13270 -1646l178 274 16 26 -25 16 -275 178 -25 16 -17 -25 -177 -274 -17 -26 26 -17 274 -177 26 -17 16 26zm110 282l-144 -223 -223 144 144 223 223 -144z"/>
    <path class="fil1" d="M16416 326l-41 324 -4 30 -30 -3 -324 -41 -31 -4 4 -30 41 -324 3 -31 31 4 324 41 30 3 -3 31zm-98 286l33 -263 -263 -33 -33 263 263 33z"/>
    <polygon class="fil2" points="14115,-357 14349,-625 14372,-651 14395,-625 14605,-384 14816,-626 14839,-652 14862,-626 15074,-384 15323,-633 15367,-590 15094,-317 15071,-294 15049,-319 14839,-559 14628,-317 14605,-291 14582,-317 14372,-558 14161,-317 "/>
    <polygon class="fil0" points="15483,2403 15272,2162 15062,2403 15039,2429 15016,2403 14805,2161 14595,2402 14573,2426 14550,2403 14278,2130 14321,2087 14571,2337 14782,2095 14805,2068 14828,2095 15039,2336 15249,2095 15272,2069 15295,2095 15529,2363 "/>
    <path class="fil0" d="M16549 2798l-88 436 -11 54 -40 -38 -334 -318 -40 -37 52 -15 423 -117 48 -14 -10 49zm-137 370l67 -333 -322 90 255 243z"/>
    <polygon class="fil1" points="15672,3507 15838,3610 15941,3444 15993,3477 15890,3642 16055,3746 16023,3798 15857,3694 15754,3860 15702,3827 15805,3662 15640,3559 "/>
    <polygon class="fil2" points="14065,-1558 14276,-1317 14486,-1558 14509,-1584 14532,-1558 14743,-1316 14953,-1556 14999,-1516 14766,-1249 14743,-1223 14720,-1249 14509,-1491 14299,-1250 14276,-1224 14253,-1250 14019,-1518 "/>
    <path class="fil1" d="M10501 -592l-144 223 223 144 144 -223 -223 -144zm-212 215l177 -274 17 -26 26 17 274 177 25 17 -16 26 -178 274 -16 25 -26 -16 -274 -178 -26 -16 17 -26z"/>
    <polygon class="fil2" points="12274,-754 12063,-995 11852,-754 11829,-728 11806,-754 11595,-996 11386,-755 11364,-730 11341,-754 11068,-1026 11112,-1070 11361,-820 11572,-1062 11595,-1089 11618,-1062 11829,-821 12040,-1062 12063,-1088 12086,-1062 12320,-794 "/>
    <path class="fil2" d="M15311 75l-180 195 195 180 180 -195 -195 -180zm-246 176l222 -240 20 -22 23 21 240 221 22 21 -20 22 -222 240 -21 23 -22 -21 -240 -221 -23 -21 21 -23z"/>
    <path class="fil0" d="M12792 -21l192 -353 23 -42 29 39 246 342 34 46 -58 2 -438 11 -53 1 25 -46zm222 -281l-143 264 328 -9 -185 -255z"/>
    <path class="fil1" d="M16791 5639l-177 -274 -17 -26 26 -17 274 -177 26 -17 16 26 178 274 17 26 -26 16 -274 178 -26 16 -17 -25zm-109 -282l144 223 223 -144 -144 -223 -223 144z"/>
    <path class="fil1" d="M16579 -894l177 274 17 26 -26 16 -274 177 -26 17 -16 -26 -178 -274 -16 -26 25 -16 274 -177 26 -17 17 26zm109 281l-144 -223 -223 145 144 223 223 -145z"/>
    <polygon class="fil2" points="16283,4219 16493,4461 16704,4220 16727,4193 16750,4220 16961,4461 17171,4221 17217,4261 16984,4528 16961,4554 16938,4528 16727,4286 16516,4527 16493,4554 16470,4527 16237,4260 "/>
    <polygon class="fil0" points="7998,2417 8232,2150 8255,2123 8278,2150 8488,2391 8699,2149 8722,2123 8745,2149 8957,2391 9206,2141 9250,2185 8977,2458 8954,2481 8932,2456 8722,2216 8511,2457 8488,2484 8465,2457 8255,2216 8044,2458 "/>
    <path class="fil0" d="M11401 372l67 333 256 -243 -323 -90zm18 399l-88 -436 -9 -49 48 14 422 118 52 14 -39 37 -335 318 -40 39 -11 -55z"/>
    <path class="fil1" d="M7844 458l-160 299 352 -25 -192 -274zm-240 319l210 -392 24 -44 28 41 251 360 31 44 -54 4 -461 32 -55 4 26 -49z"/>
    <polygon class="fil2" points="8567,-1421 8801,-1689 8824,-1716 8847,-1689 9057,-1448 9268,-1690 9291,-1716 9314,-1690 9525,-1448 9775,-1697 9818,-1654 9545,-1381 9522,-1358 9501,-1383 9291,-1623 9080,-1382 9057,-1355 9034,-1382 8824,-1623 8613,-1381 "/>
    <path class="fil0" d="M8669 -847l23 338 285 -207 -308 -131zm-34 398l-30 -444 -3 -50 45 20 404 172 50 21 -44 32 -374 272 -45 32 -3 -55z"/>
    <path class="fil1" d="M11935 5785l177 274 17 26 -26 16 -274 178 -26 16 -16 -25 -178 -275 -16 -25 25 -17 274 -177 26 -17 17 26zm109 281l-144 -222 -223 144 144 223 223 -145z"/>
    <polygon class="fil2" points="13459,8576 13693,8308 13716,8282 13739,8308 13949,8549 14160,8308 14183,8281 14206,8308 14417,8550 14667,8300 14710,8343 14437,8616 14414,8639 14393,8615 14183,8374 13972,8616 13949,8642 13926,8616 13716,8375 13505,8616 "/>
    <polygon class="fil2" points="11093,6838 11303,7079 11514,6838 11537,6812 11560,6838 11771,7080 11981,6839 12027,6879 11794,7146 11771,7173 11748,7146 11537,6905 11326,7146 11303,7172 11280,7146 11047,6878 "/>
    <path class="fil1" d="M12701 3617l-144 223 223 144 144 -223 -223 -144zm-212 215l177 -274 17 -26 26 17 274 177 26 17 -17 25 -177 275 -17 25 -26 -16 -274 -178 -26 -16 17 -26z"/>
    <polygon class="fil2" points="14089,3086 13878,2844 13668,3085 13645,3112 13622,3085 13411,2844 13201,3084 13180,3109 13156,3086 12884,2813 12927,2770 13177,3019 13388,2777 13411,2751 13434,2777 13645,3019 13855,2778 13878,2751 13901,2778 14135,3046 "/>
    <path class="fil1" d="M11467 2430l177 275 17 25 -26 17 -274 177 -26 17 -17 -26 -177 -274 -17 -26 26 -16 274 -178 26 -16 17 25zm109 282l-144 -223 -223 145 144 222 223 -144z"/>
    <polygon class="fil2" points="12962,5295 12752,5053 12541,5294 12518,5321 12495,5294 12284,5053 12074,5293 12053,5318 12030,5295 11757,5022 11800,4978 12050,5228 12261,4986 12284,4960 12307,4986 12518,5228 12729,4986 12752,4960 12775,4986 13008,5254 "/>
    <path class="fil0" d="M10879 3250l67 332 255 -243 -322 -89zm18 399l-88 -436 -10 -49 48 13 423 118 52 14 -40 38 -334 318 -40 38 -11 -54z"/>
    <polygon class="fil2" points="8727,9761 8938,10002 9148,9761 9171,9735 9194,9761 9405,10003 9615,9762 9661,9803 9428,10069 9405,10096 9382,10069 9171,9828 8961,10069 8938,10095 8915,10069 8681,9801 "/>
    <polygon class="fil0" points="13179,6403 13412,6136 13435,6109 13458,6136 13669,6377 13880,6135 13903,6109 13926,6135 14137,6377 14387,6127 14430,6171 14157,6444 14134,6467 14113,6442 13903,6202 13692,6443 13669,6470 13646,6443 13435,6202 13225,6444 "/>
    <path class="fil1" d="M13786 4929l-160 299 351 -25 -191 -274zm-240 319l209 -392 24 -44 29 41 250 360 31 44 -54 4 -460 32 -56 4 27 -49z"/>
    <path class="fil1" d="M14706 7432l-177 -274 -17 -26 26 -16 274 -178 26 -16 16 25 178 275 16 25 -25 17 -274 177 -26 17 -17 -26zm-109 -281l144 222 223 -144 -144 -223 -223 145z"/>
    <path class="fil1" d="M12549 1154l177 274 17 26 -26 16 -274 177 -26 17 -16 -25 -178 -275 -16 -25 25 -17 275 -177 25 -17 17 26zm109 281l-144 -223 -223 145 145 223 222 -145z"/>
    <polygon class="fil2" points="13344,1242 13554,1483 13765,1242 13788,1216 13811,1242 14022,1484 14232,1243 14278,1284 14045,1550 14022,1577 13999,1550 13788,1309 13577,1550 13554,1576 13531,1550 13298,1282 "/>
    <path class="fil1" d="M11043 4923l-144 223 222 145 145 -223 -223 -145zm-212 216l177 -274 17 -26 25 17 275 177 25 17 -16 25 -178 275 -16 25 -26 -16 -274 -178 -26 -16 17 -26z"/>
    <polygon class="fil2" points="11552,2046 11341,1805 11131,2046 11108,2072 11085,2046 10874,1804 10664,2045 10643,2069 10620,2046 10347,1773 10390,1730 10640,1980 10851,1738 10874,1711 10897,1738 11108,1979 11318,1738 11341,1712 11364,1738 11598,2006 "/>
    <polygon class="fil0" points="6986,8083 7220,7815 7243,7788 7266,7815 7476,8056 7687,7814 7710,7788 7733,7814 7944,8056 8194,7807 8237,7850 7964,8123 7941,8146 7920,8121 7710,7881 7499,8122 7476,8149 7453,8122 7243,7881 7032,8123 "/>
    <path class="fil1" d="M6191 8387l-161 299 352 -25 -191 -274zm-241 319l210 -392 24 -44 28 41 251 360 31 44 -54 4 -461 32 -55 4 26 -49z"/>
    <path class="fil1" d="M7036 6722l-40 324 -4 30 -30 -4 -324 -40 -31 -4 4 -30 40 -324 4 -31 31 4 324 40 30 4 -4 31zm-97 286l33 -264 -263 -32 -33 263 263 33z"/>
    <polygon class="fil2" points="5789,5787 6023,5520 6046,5493 6069,5520 6279,5761 6490,5519 6513,5493 6536,5519 6747,5761 6997,5511 7040,5555 6767,5828 6744,5851 6723,5826 6513,5586 6302,5827 6279,5854 6256,5827 6046,5586 5835,5828 "/>
    <polygon class="fil0" points="7090,9979 6879,9737 6669,9978 6646,10005 6623,9978 6412,9737 6202,9977 6180,10002 6157,9979 5884,9706 5928,9663 6177,9912 6389,9670 6412,9644 6435,9670 6646,9912 6856,9671 6879,9644 6902,9671 7136,9939 "/>
    <path class="fil0" d="M8141 9464l-88 436 -11 54 -40 -38 -335 -318 -39 -37 52 -15 423 -118 48 -13 -10 49zm-137 370l67 -333 -323 90 256 243z"/>
    <polygon class="fil1" points="7264,10172 7429,10276 7533,10110 7585,10143 7481,10308 7647,10411 7615,10463 7449,10360 7346,10526 7294,10493 7397,10328 7232,10224 "/>
    <polygon class="fil2" points="5209,4256 5420,4498 5630,4257 5653,4230 5676,4257 5887,4498 6097,4258 6143,4298 5910,4565 5887,4591 5864,4565 5653,4323 5443,4564 5420,4591 5397,4564 5163,4296 "/>
    <path class="fil1" d="M4228 9248l210 392 26 48 -55 -4 -461 -32 -54 -3 31 -45 251 -360 28 -41 24 45zm130 372l-161 -300 -191 275 352 25z"/>
    <path class="fil2" d="M8107 6504l-180 195 195 180 180 -194 -195 -181zm-246 176l221 -240 21 -22 23 21 240 221 22 21 -21 23 -221 239 -21 23 -22 -21 -240 -221 -23 -21 21 -23z"/>
    <path class="fil1" d="M7916 9009l-178 -274 -16 -26 25 -16 274 -178 26 -16 17 25 177 275 17 25 -26 17 -274 177 -26 17 -16 -26zm-110 -281l144 223 223 -145 -144 -223 -223 145z"/>
    <polygon class="fil0" points="2349,11019 2583,10751 2606,10725 2629,10751 2840,10992 3051,10751 3074,10724 3097,10751 3308,10993 3558,10743 3601,10787 3328,11059 3305,11083 3283,11058 3074,10817 2863,11059 2840,11085 2817,11059 2606,10818 2396,11059 "/>
    <path class="fil2" d="M6201 10553l-180 195 194 180 181 -195 -195 -180zm-246 176l221 -240 21 -23 23 21 240 221 22 21 -21 23 -221 240 -21 22 -23 -21 -239 -221 -23 -21 21 -22z"/>
    <polygon class="fil1" points="5030,10422 4864,10525 4968,10690 4916,10723 4812,10557 4647,10661 4614,10609 4780,10505 4677,10340 4729,10307 4832,10473 4997,10370 "/>
    <polygon class="fil1" points="333,6153 543,6394 754,6152 777,6126 800,6152 1011,6395 1261,6145 1304,6188 1031,6461 1008,6484 987,6459 777,6219 566,6461 543,6487 520,6461 287,6193 "/>
    <path class="fil2" d="M520 4656l222 240 20 23 -22 21 -240 221 -22 21 -21 -23 -222 -240 -21 -22 23 -21 240 -221 22 -21 21 22zm156 259l-180 -195 -195 180 180 195 195 -180z"/>
    <path class="fil1" d="M-563 7014l144 -223 -223 -144 -144 223 223 144zm212 -215l-178 274 -16 26 -26 -17 -274 -177 -26 -17 17 -25 177 -275 17 -25 26 16 274 178 25 16 -16 26z"/>
    <polygon class="fil0" points="2157,10232 1946,9990 1735,10231 1712,10257 1689,10231 1479,9990 1269,10230 1247,10255 1224,10232 951,9959 995,9915 1244,10165 1456,9923 1479,9897 1502,9923 1712,10164 1923,9923 1946,9897 1969,9923 2203,10191 "/>
    <polygon class="fil0" points="-769,5707 -603,5811 -500,5645 -448,5677 -551,5843 -386,5946 -418,5998 -584,5895 -687,6060 -739,6028 -636,5863 -801,5759 "/>
    <polygon class="fil1" points="3927,7161 4092,7264 4195,7099 4247,7131 4144,7297 4310,7400 4277,7452 4112,7349 4008,7514 3956,7482 4060,7316 3894,7213 "/>
    <path class="fil1" d="M1330 7600l210 392 26 49 -55 -4 -461 -32 -54 -4 31 -44 251 -360 28 -41 24 44zm130 372l-160 -299 -192 275 352 24z"/>
    <path class="fil1" d="M-667 4137l-144 223 223 144 144 -222 -223 -145zm-212 216l177 -275 17 -25 25 16 275 178 25 16 -16 26 -178 274 -16 26 -26 -17 -274 -177 -26 -17 17 -25z"/>
    <path class="fil1" d="M-556 5078l33 264 264 -33 -33 -264 -264 33zm-24 301l-40 -324 -4 -30 30 -4 325 -40 30 -4 4 30 40 325 4 30 -30 4 -325 40 -30 4 -4 -31z"/>
    <polygon class="fil2" points="1105,3976 895,3735 684,3976 661,4002 638,3976 427,3734 217,3974 196,3999 173,3976 -100,3703 -57,3660 193,3909 404,3667 427,3641 450,3667 661,3909 872,3668 895,3642 918,3668 1151,3936 "/>
    <polygon class="fil0" points="-410,9083 -176,8815 -153,8789 -130,8815 80,9056 291,8815 314,8788 337,8815 548,9057 798,8807 841,8851 568,9123 545,9146 524,9122 314,8881 103,9123 80,9149 57,9123 -153,8882 -364,9123 "/>
    <path class="fil2" d="M3441 8617l-180 194 195 181 180 -195 -195 -180zm-246 175l222 -239 20 -23 23 21 240 221 22 21 -20 23 -222 240 -21 22 -22 -21 -240 -221 -23 -21 21 -23z"/>
    <path class="fil0" d="M-125 7531l67 333 255 -243 -322 -90zm18 399l-88 -435 -10 -49 48 13 423 118 52 14 -39 37 -335 319 -40 38 -11 -55z"/>
    <polygon class="fil1" points="2270,8485 2105,8589 2208,8754 2156,8787 2053,8621 1887,8724 1855,8672 2020,8569 1917,8404 1969,8371 2072,8537 2238,8433 "/>
    <polygon class="fil0" points="6280,1687 6514,1419 6537,1393 6560,1419 6770,1660 6981,1418 7004,1392 7027,1418 7238,1660 7488,1411 7531,1454 7258,1727 7235,1750 7214,1725 7004,1485 6793,1727 6770,1753 6747,1727 6537,1486 6326,1727 "/>
    <path class="fil1" d="M2084 519l177 274 17 26 -26 17 -274 177 -26 17 -16 -26 -177 -274 -17 -26 26 -16 274 -178 26 -16 16 25zm110 282l-145 -223 -223 144 145 223 223 -144z"/>
    <path class="fil1" d="M9814 471l-40 324 -4 31 -30 -4 -324 -41 -31 -4 4 -30 40 -324 4 -31 31 4 324 41 30 4 -4 30zm-97 286l33 -263 -264 -33 -32 263 263 33z"/>
    <polygon class="fil2" points="5001,-87 5235,-355 5258,-382 5281,-355 5491,-114 5702,-356 5725,-382 5748,-356 5959,-114 6209,-363 6252,-320 5979,-47 5956,-24 5935,-49 5725,-289 5514,-48 5491,-21 5468,-48 5258,-289 5047,-47 "/>
    <polygon class="fil0" points="6369,2673 6158,2432 5947,2673 5924,2699 5901,2673 5690,2431 5481,2671 5459,2696 5436,2673 5163,2400 5206,2357 5456,2607 5667,2364 5690,2338 5713,2364 5924,2606 6135,2365 6158,2339 6181,2365 6415,2633 "/>
    <path class="fil0" d="M7435 3068l-88 436 -11 54 -40 -38 -335 -318 -39 -37 52 -15 423 -117 48 -14 -10 49zm-137 370l67 -333 -323 90 256 243z"/>
    <polygon class="fil1" points="6558,3777 6723,3880 6827,3714 6879,3747 6775,3912 6941,4016 6909,4068 6743,3964 6640,4130 6588,4097 6691,3932 6526,3829 "/>
    <polygon class="fil2" points="4950,-1288 5161,-1047 5372,-1288 5395,-1314 5418,-1288 5629,-1046 5838,-1286 5884,-1246 5652,-979 5629,-953 5606,-979 5395,-1221 5184,-980 5161,-954 5138,-980 4904,-1248 "/>
    <path class="fil1" d="M1386 -322l-144 223 223 144 144 -223 -223 -144zm-212 215l178 -274 16 -26 26 17 274 177 26 17 -17 25 -177 275 -17 25 -25 -16 -275 -178 -25 -16 16 -26z"/>
    <polygon class="fil2" points="3159,-484 2948,-725 2738,-484 2715,-458 2692,-484 2481,-726 2271,-485 2250,-461 2226,-484 1954,-756 1997,-800 2247,-550 2458,-792 2481,-819 2504,-792 2715,-551 2925,-792 2948,-818 2971,-792 3205,-524 "/>
    <path class="fil2" d="M6196 345l-180 195 195 180 180 -195 -195 -180zm-245 176l221 -240 21 -22 22 21 240 221 23 21 -21 22 -221 240 -21 23 -23 -21 -240 -222 -22 -20 21 -23z"/>
    <path class="fil0" d="M3678 249l192 -353 23 -42 28 39 247 341 34 47 -58 2 -439 11 -52 1 25 -46zm222 -281l-143 263 327 -8 -184 -255z"/>
    <path class="fil1" d="M7677 5909l-178 -275 -16 -25 25 -17 275 -177 25 -17 17 26 177 274 17 26 -26 16 -274 178 -26 16 -16 -25zm-110 -282l145 223 222 -144 -144 -223 -223 144z"/>
    <path class="fil1" d="M7464 -625l178 275 16 25 -25 17 -275 177 -25 17 -17 -26 -177 -274 -17 -26 26 -16 274 -178 26 -16 16 25zm110 282l-144 -223 -223 145 144 222 223 -144z"/>
    <polygon class="fil2" points="7168,4489 7379,4731 7589,4490 7612,4463 7635,4490 7846,4731 8056,4491 8102,4531 7869,4798 7846,4824 7823,4798 7612,4556 7402,4797 7379,4824 7356,4797 7122,4530 "/>
    <polygon class="fil0" points="-1116,2687 -882,2419 -859,2393 -836,2419 -626,2660 -415,2419 -392,2393 -369,2419 -158,2661 92,2411 135,2455 -138,2728 -161,2751 -182,2726 -392,2486 -603,2727 -626,2753 -649,2727 -859,2486 -1070,2728 "/>
    <path class="fil0" d="M6859 -1586l67 333 255 -243 -322 -90zm18 399l-88 -436 -10 -48 48 13 422 118 53 14 -40 37 -334 319 -41 38 -10 -55z"/>
    <path class="fil1" d="M-64 927l-160 299 352 -25 -192 -274zm-240 319l210 -392 23 -44 29 41 251 360 31 44 -54 4 -461 32 -55 4 26 -49z"/>
    <polygon class="fil2" points="-548,-1152 -314,-1419 -291,-1446 -268,-1419 -57,-1178 153,-1420 176,-1446 199,-1420 411,-1178 660,-1428 704,-1384 431,-1111 408,-1088 386,-1113 176,-1353 -34,-1112 -57,-1085 -80,-1112 -291,-1353 -502,-1111 "/>
    <path class="fil0" d="M-445 -577l23 338 285 -207 -308 -131zm-35 398l-30 -444 -3 -50 46 20 403 172 50 21 -44 32 -373 272 -45 32 -4 -55z"/>
    <path class="fil1" d="M2820 6054l178 275 16 25 -25 17 -275 177 -25 17 -17 -26 -177 -274 -17 -26 26 -16 274 -178 26 -16 16 25zm110 282l-144 -223 -223 145 144 223 223 -145z"/>
    <polygon class="fil2" points="4344,8846 4578,8578 4601,8552 4624,8578 4835,8819 5045,8578 5068,8551 5092,8578 5303,8820 5552,8570 5596,8613 5323,8886 5300,8909 5278,8885 5069,8644 4858,8886 4835,8912 4812,8886 4601,8645 4390,8886 "/>
    <polygon class="fil2" points="1978,7107 2189,7349 2399,7108 2422,7082 2445,7108 2656,7350 2866,7109 2912,7149 2679,7416 2656,7443 2633,7416 2422,7175 2212,7416 2189,7442 2166,7416 1932,7148 "/>
    <path class="fil1" d="M3587 3887l-144 223 222 144 145 -223 -223 -144zm-212 215l177 -274 17 -26 25 17 275 177 25 17 -16 25 -178 275 -16 25 -26 -16 -274 -178 -26 -16 17 -26z"/>
    <polygon class="fil2" points="4975,3356 4764,3114 4553,3355 4530,3382 4507,3355 4297,3114 4087,3354 4065,3379 4042,3356 3769,3083 3813,3040 4062,3289 4274,3047 4297,3021 4320,3047 4530,3289 4741,3048 4764,3021 4787,3048 5021,3316 "/>
    <path class="fil1" d="M2352 2700l178 275 16 25 -25 17 -275 177 -25 17 -17 -26 -177 -274 -17 -26 26 -16 274 -178 26 -16 16 25zm110 282l-145 -223 -222 144 144 223 223 -144z"/>
    <polygon class="fil2" points="3848,5565 3637,5323 3427,5564 3404,5590 3381,5564 3170,5323 2960,5563 2938,5588 2915,5564 2642,5292 2686,5248 2935,5498 3147,5256 3170,5230 3193,5256 3404,5497 3614,5256 3637,5230 3660,5256 3894,5524 "/>
    <path class="fil0" d="M1764 3520l67 332 256 -243 -323 -89zm18 399l-88 -436 -9 -49 48 13 422 118 52 14 -39 38 -335 318 -40 38 -11 -54z"/>
    <polygon class="fil2" points="-387,10031 -177,10272 34,10031 57,10005 80,10031 291,10273 501,10032 547,10073 314,10339 291,10366 268,10339 57,10098 -154,10339 -177,10365 -200,10339 -433,10071 "/>
    <polygon class="fil0" points="4064,6673 4298,6406 4321,6379 4344,6406 4554,6647 4765,6405 4788,6379 4811,6405 5023,6647 5272,6397 5316,6441 5043,6714 5020,6737 4998,6712 4788,6472 4577,6713 4554,6740 4531,6713 4321,6472 4110,6714 "/>
    <path class="fil1" d="M4671 5199l-160 299 352 -25 -192 -274zm-240 319l210 -392 24 -44 28 41 251 360 31 44 -54 4 -461 32 -55 4 26 -49z"/>
    <path class="fil1" d="M5592 7702l-178 -274 -16 -26 25 -16 275 -178 25 -16 17 25 177 275 17 25 -26 17 -274 177 -26 17 -16 -26zm-110 -281l144 222 223 -144 -144 -223 -223 145z"/>
    <path class="fil1" d="M3435 1423l177 275 17 25 -26 17 -274 177 -26 17 -17 -26 -177 -274 -17 -26 26 -16 274 -178 26 -16 17 25zm109 282l-144 -223 -223 145 144 222 223 -144z"/>
    <polygon class="fil2" points="4229,1512 4440,1753 4650,1512 4673,1486 4696,1512 4907,1754 5117,1513 5163,1554 4930,1820 4907,1847 4884,1820 4673,1579 4463,1820 4440,1846 4417,1820 4183,1552 "/>
    <path class="fil1" d="M1928 5193l-144 223 223 144 144 -222 -223 -145zm-212 216l178 -275 16 -25 26 16 274 178 26 16 -17 26 -177 274 -17 26 -26 -17 -274 -177 -26 -17 17 -25z"/>
    <polygon class="fil2" points="2438,2316 2227,2075 2017,2316 1994,2342 1971,2316 1760,2074 1550,2314 1528,2339 1505,2316 1232,2043 1276,2000 1525,2250 1737,2007 1760,1981 1783,2007 1994,2249 2204,2008 2227,1982 2250,2008 2484,2276 "/>
   </g>
  </g>
  <polygon class="fil3" points="0,0 16256,0 16256,9144 0,9144 "/>
 </g>
</svg>
