<?xml version="1.0" encoding="UTF-8"?>
<!DOCTYPE svg PUBLIC "-//W3C//DTD SVG 1.1//EN" "http://www.w3.org/Graphics/SVG/1.1/DTD/svg11.dtd">
<!-- Creator: CorelDRAW X7 -->
<svg xmlns="http://www.w3.org/2000/svg" xml:space="preserve" width="297mm" height="72.868mm" version="1.1" style="shape-rendering:geometricPrecision; text-rendering:geometricPrecision; image-rendering:optimizeQuality; fill-rule:evenodd; clip-rule:evenodd"
viewBox="0 0 29700 7287"
 xmlns:xlink="http://www.w3.org/1999/xlink">
 <defs>
  <style type="text/css">
   <![CDATA[
    .fil1 {fill:black;fill-rule:nonzero}
    .fil0 {fill:#FF2B06;fill-rule:nonzero}
   ]]>
  </style>
 </defs>
 <g id="Layer_x0020_1">
  <metadata id="CorelCorpID_0Corel-Layer"/>
  <polygon class="fil0" points="253,6789 73,6529 245,6529 342,6672 437,6529 604,6529 423,6786 626,7078 454,7078 339,6905 225,7078 56,7078 "/>
  <path class="fil1" d="M1342 6981l-537 0 0 -114 537 0 0 114zm0 -228l-537 0 0 -114 537 0 0 114z"/>
  <path class="fil1" d="M1602 6529l151 0 0 549 -151 0 0 -549zm151 -85l-151 0 0 -125 151 0 0 125z"/>
  <path class="fil1" d="M1851 6529l144 0 0 76 3 0c38,-61 104,-91 168,-91 160,0 201,90 201,226l0 338 -151 0 0 -310c0,-90 -27,-135 -97,-135 -82,0 -117,46 -117,157l0 288 -151 0 0 -549z"/>
  <path class="fil1" d="M2721 6628c-99,0 -133,85 -133,175 0,86 39,177 133,177 100,0 129,-88 129,-178 0,-89 -31,-174 -129,-174zm132 380l-3 0c-35,60 -96,85 -166,85 -166,0 -247,-142 -247,-294 0,-148 82,-285 243,-285 65,0 129,28 164,82l-1 0 2 0 0 -277 151 0 0 759 -143 0 0 -70z"/>
  <path class="fil1" d="M3459 6745c-14,-77 -47,-117 -121,-117 -95,0 -123,74 -125,117l246 0zm-246 95c4,96 51,140 135,140 61,0 110,-38 119,-72l133 0c-43,130 -133,185 -257,185 -174,0 -281,-119 -281,-289 0,-165 114,-290 281,-290 187,0 277,157 267,326l-397 0z"/>
  <path class="fil1" d="M4086 6805c0,-87 -35,-177 -132,-177 -99,0 -131,88 -131,177 0,89 34,175 132,175 99,0 131,-86 131,-175zm-408 -276l143 0 0 70 2 0c36,-59 96,-85 164,-85 172,0 250,139 250,295 0,147 -81,284 -242,284 -65,0 -128,-28 -164,-83l-2 0 0 262 -151 0 0 -743z"/>
  <path class="fil1" d="M4676 6745c-14,-77 -47,-117 -120,-117 -96,0 -124,74 -126,117l246 0zm-246 95c4,96 51,140 135,140 61,0 110,-38 119,-72l133 0c-42,130 -133,185 -257,185 -173,0 -281,-119 -281,-289 0,-165 114,-290 281,-290 187,0 277,157 267,326l-397 0z"/>
  <path class="fil1" d="M4895 6529l143 0 0 76 4 0c38,-61 104,-91 167,-91 161,0 201,90 201,226l0 338 -151 0 0 -310c0,-90 -26,-135 -96,-135 -82,0 -117,46 -117,157l0 288 -151 0 0 -549z"/>
  <path class="fil1" d="M5764 6628c-98,0 -132,85 -132,175 0,86 39,177 132,177 100,0 130,-88 130,-178 0,-89 -32,-174 -130,-174zm132 380l-2 0c-35,60 -97,85 -167,85 -166,0 -246,-142 -246,-294 0,-148 81,-285 243,-285 65,0 129,28 164,82l-1 0 2 0 0 -277 151 0 0 759 -144 0 0 -70z"/>
  <path class="fil1" d="M6502 6745c-14,-77 -47,-117 -120,-117 -96,0 -123,74 -125,117l245 0zm-245 95c4,96 51,140 135,140 60,0 109,-38 119,-72l133 0c-43,130 -133,185 -258,185 -173,0 -280,-119 -280,-289 0,-165 113,-290 280,-290 187,0 278,157 267,326l-396 0z"/>
  <path class="fil1" d="M6721 6529l144 0 0 76 3 0c38,-61 104,-91 168,-91 160,0 201,90 201,226l0 338 -151 0 0 -310c0,-90 -27,-135 -97,-135 -82,0 -117,46 -117,157l0 288 -151 0 0 -549z"/>
  <path class="fil1" d="M7522 6529l110 0 0 101 -110 0 0 272c0,51 12,64 64,64 15,0 30,-1 46,-5l0 118c-25,5 -58,6 -88,6 -92,0 -173,-21 -173,-131l0 -324 -92 0 0 -101 92 0 0 -165 151 0 0 165z"/>
  <polygon class="fil1" points="7688,6319 7839,6319 7839,7078 7688,7078 "/>
  <path class="fil1" d="M8207 7148c-33,88 -85,124 -189,124 -31,0 -62,-2 -92,-5l0 -125c28,2 58,7 88,6 52,-6 69,-60 52,-104l-193 -515 161 0 124 376 3 0 120 -376 156 0 -230 619z"/>
  <polygon class="fil0" points="708,653 0,653 0,5 2195,5 2195,653 1487,653 1487,2532 708,2532 "/>
  <polygon class="fil0" points="2316,5 4446,5 4446,653 3094,653 3094,968 4446,968 4446,1570 3094,1570 3094,1885 4446,1885 4446,2532 2316,2532 "/>
  <path class="fil0" d="M5356 1885l304 0c486,0 556,-393 556,-631 0,-159 -49,-601 -612,-601l-248 0 0 1232zm-779 -1880l1278 0c842,0 1140,623 1140,1260 0,775 -410,1267 -1292,1267l-1126 0 0 -2527z"/>
  <polygon class="fil0" points="8114,1558 7877,1164 7645,1558 7074,1558 7616,762 7094,0 7665,0 7877,377 8094,0 8665,0 8143,762 8685,1558 "/>
  <path class="fil1" d="M1989 3849c-14,-277 -102,-804 -982,-804 -611,0 -867,386 -867,779 0,439 372,555 537,593l515 120c415,98 537,182 537,445 0,362 -414,425 -659,425 -323,0 -695,-133 -695,-590l-319 0c0,235 42,446 256,639 112,102 294,242 761,242 432,0 986,-165 986,-761 0,-400 -245,-597 -572,-674l-719 -165c-147,-35 -298,-105 -298,-319 0,-383 361,-442 575,-442 284,0 607,122 625,512l319 0zm358 863c0,474 267,969 853,969 586,0 852,-495 852,-969 0,-474 -266,-968 -852,-968 -586,0 -853,494 -853,968zm319 0c0,-246 92,-702 534,-702 442,0 533,456 533,702 0,246 -91,702 -533,702 -442,0 -534,-456 -534,-702zm1737 919l309 0 0 -1000c0,-498 309,-610 484,-610 228,0 288,186 288,340l0 1270 309 0 0 -1119c0,-246 172,-491 431,-491 264,0 341,172 341,424l0 1186 309 0 0 -1270c0,-516 -372,-617 -569,-617 -284,0 -407,126 -561,298 -53,-98 -158,-298 -488,-298 -330,0 -488,214 -554,312l-7 0 0 -260 -292 0 0 1835zm3197 -1277c21,-140 70,-354 421,-354 291,0 432,105 432,298 0,183 -88,211 -162,218l-509 63c-512,63 -557,421 -557,575 0,316 238,530 575,530 358,0 544,-168 663,-298 11,140 53,281 327,281 70,0 115,-21 168,-36l0 -224c-35,7 -74,14 -102,14 -63,0 -102,-32 -102,-109l0 -1056c0,-470 -533,-512 -680,-512 -453,0 -744,172 -758,610l284 0zm846 642c0,246 -281,432 -569,432 -231,0 -333,-119 -333,-319 0,-232 242,-278 393,-299 382,-49 460,-77 509,-115l0 301zm1147 -1200l-309 0 0 1835 309 0 0 -1835zm0 -333l0 -351 -309 0 0 351 309 0zm1120 1828l-7 0 -488 -1495 -351 0 681 1885c-148,379 -165,424 -327,424 -84,0 -147,-17 -186,-31l0 284c49,10 84,24 130,24 397,0 428,-42 719,-786 236,-600 446,-1200 660,-1800l-340 0 -491 1495zm1301 -937c21,-140 71,-354 421,-354 292,0 432,105 432,298 0,183 -88,211 -161,218l-509 63c-512,63 -558,421 -558,575 0,316 239,530 575,530 358,0 544,-168 664,-298 10,140 52,281 326,281 70,0 116,-21 168,-36l0 -224c-35,7 -73,14 -101,14 -64,0 -102,-32 -102,-109l0 -1056c0,-470 -533,-512 -681,-512 -453,0 -744,172 -758,610l284 0zm846 642c0,246 -281,432 -568,432 -232,0 -334,-119 -334,-319 0,-232 242,-278 393,-299 383,-49 460,-77 509,-115l0 301zm1779 264l-7 0 -719 -2148 -379 0 919 2519 362 0 919 -2519 -383 0 -712 2148zm1709 -1464l-309 0 0 1835 309 0 0 -1835zm0 -333l0 -351 -309 0 0 351 309 0zm1986 -351l-309 0 0 919 -7 25c-73,-105 -214,-312 -547,-312 -488,0 -765,400 -765,915 0,439 182,1025 807,1025 179,0 390,-56 523,-305l7 0 0 252 291 0 0 -2519zm-1309 1597c0,-236 25,-688 502,-688 446,0 495,481 495,779 0,488 -305,617 -502,617 -337,0 -495,-305 -495,-708zm2393 582l-7 0 -487 -1495 -351 0 681 1885c-148,379 -165,424 -327,424 -84,0 -147,-17 -186,-31l0 284c49,10 84,24 130,24 397,0 428,-42 719,-786 236,-600 446,-1200 660,-1800l-340 0 -492 1495zm1302 -937c21,-140 71,-354 421,-354 292,0 432,105 432,298 0,183 -88,211 -161,218l-509 63c-513,63 -558,421 -558,575 0,316 239,530 575,530 358,0 544,-168 664,-298 10,140 52,281 326,281 70,0 116,-21 168,-36l0 -224c-35,7 -73,14 -101,14 -64,0 -102,-32 -102,-109l0 -1056c0,-470 -534,-512 -681,-512 -453,0 -744,172 -758,610l284 0zm846 642c0,246 -281,432 -568,432 -232,0 -334,-119 -334,-319 0,-232 242,-278 393,-299 383,-49 460,-77 509,-115l0 301zm1404 295l-7 0 -478 -1495 -358 0 671 1835 330 0 698 -1835 -337 0 -519 1495zm1428 -1495l-309 0 0 1835 309 0 0 -1835zm0 -333l0 -351 -309 0 0 351 309 0zm1958 919c0,-523 -358,-638 -642,-638 -295,0 -449,182 -537,298l-7 0 0 -930 -309 0 0 2519 309 0 0 -1000c0,-463 259,-610 512,-610 295,0 365,161 365,410l0 1200 309 0 0 -1249zm730 -28c21,-140 70,-354 421,-354 291,0 431,105 431,298 0,183 -87,211 -161,218l-509 63c-512,63 -558,421 -558,575 0,316 239,530 576,530 358,0 544,-168 663,-298 11,140 53,281 326,281 71,0 116,-21 169,-36l0 -224c-35,7 -74,14 -102,14 -63,0 -102,-32 -102,-109l0 -1056c0,-470 -533,-512 -681,-512 -452,0 -743,172 -757,610l284 0zm845 642c0,246 -280,432 -568,432 -232,0 -333,-119 -333,-319 0,-232 242,-278 393,-299 382,-49 459,-77 508,-115l0 301zm1183 -431c0,-267 182,-492 470,-492l116 0 0 -319c-25,-7 -42,-10 -81,-10 -231,0 -393,143 -516,358l-7 0 0 -306 -291 0 0 1835 309 0 0 -1066z"/>
  <path class="fil1" d="M9008 6980c103,0 134,-89 134,-176 0,-88 -31,-176 -134,-176 -102,0 -133,88 -133,176 0,87 31,176 133,176zm0 -466c173,0 285,115 285,290 0,174 -112,289 -285,289 -172,0 -284,-115 -284,-289 0,-175 112,-290 284,-290z"/>
  <path class="fil1" d="M9348 6529l144 0 0 102 2 0c27,-69 102,-117 175,-117 11,0 24,2 33,5l0 141c-14,-4 -36,-6 -54,-6 -111,0 -149,80 -149,177l0 247 -151 0 0 -549z"/>
  <path class="fil1" d="M10125 6797c0,-90 -31,-169 -128,-169 -85,0 -123,74 -123,156 0,79 30,165 123,165 86,0 128,-74 128,-152zm144 246c0,91 -32,244 -285,244 -109,0 -235,-51 -243,-177l150 0c14,57 60,76 113,76 84,0 122,-58 121,-136l0 -73 -2 0c-33,58 -99,85 -165,85 -164,0 -235,-125 -235,-276 0,-142 82,-272 236,-272 73,0 128,24 164,88l2 0 0 -73 144 0 0 514z"/>
  <path class="fil1" d="M10690 6809c-26,23 -79,24 -126,32 -46,10 -89,26 -89,81 0,56 44,70 92,70 119,0 123,-93 123,-126l0 -57zm-349 -111c9,-142 135,-184 258,-184 110,0 242,24 242,156l0 286c0,50 5,100 19,122l-153 0c-6,-17 -10,-35 -11,-53 -48,50 -118,68 -185,68 -104,0 -187,-52 -187,-164 0,-125 94,-155 187,-167 93,-14 179,-11 179,-73 0,-65 -45,-74 -98,-74 -57,0 -95,23 -100,83l-151 0z"/>
  <path class="fil1" d="M10936 6529l144 0 0 76 3 0c38,-61 104,-91 168,-91 161,0 201,90 201,226l0 338 -151 0 0 -310c0,-90 -27,-135 -97,-135 -82,0 -117,46 -117,157l0 288 -151 0 0 -549z"/>
  <path class="fil1" d="M11529 6529l150 0 0 549 -150 0 0 -549zm150 -85l-150 0 0 -125 150 0 0 125z"/>
  <polygon class="fil1" points="11743,6965 12029,6643 11765,6643 11765,6529 12228,6529 12228,6643 11942,6965 12248,6965 12248,7078 11743,7078 "/>
  <path class="fil1" d="M12678 6745c-14,-77 -47,-117 -120,-117 -96,0 -124,74 -126,117l246 0zm-246 95c4,96 51,140 135,140 61,0 110,-38 119,-72l133 0c-42,130 -133,185 -257,185 -173,0 -281,-119 -281,-289 0,-165 114,-290 281,-290 187,0 277,157 267,326l-397 0z"/>
  <path class="fil1" d="M13157 6628c-99,0 -133,85 -133,175 0,86 40,177 133,177 100,0 130,-88 130,-178 0,-89 -32,-174 -130,-174zm132 380l-2 0c-35,60 -97,85 -167,85 -166,0 -247,-142 -247,-294 0,-148 82,-285 244,-285 65,0 128,28 164,82l-2 0 3 0 0 -277 151 0 0 759 -144 0 0 -70z"/>
  <polygon class="fil1" points="13983,6460 13756,6460 13756,6319 14378,6319 14378,6460 14150,6460 14150,7078 13983,7078 "/>
  <polygon class="fil1" points="14444,6319 15011,6319 15011,6460 14610,6460 14610,6622 14978,6622 14978,6752 14610,6752 14610,6938 15020,6938 15020,7078 14444,7078 "/>
  <path class="fil1" d="M15257 6938l149 0c96,0 189,-59 189,-227 0,-154 -53,-251 -219,-251l-119 0 0 478zm-167 -619l327 0c197,0 345,124 345,376 0,220 -113,383 -345,383l-327 0 0 -759z"/>
  <path class="fil1" d="M16485 6745c-14,-77 -47,-117 -120,-117 -96,0 -124,74 -126,117l246 0zm-246 95c4,96 51,140 135,140 61,0 110,-38 119,-72l133 0c-42,130 -133,185 -257,185 -173,0 -281,-119 -281,-289 0,-165 114,-290 281,-290 187,0 277,157 267,326l-397 0z"/>
  <polygon class="fil1" points="16987,7078 16819,7078 16630,6529 16789,6529 16905,6904 16907,6904 17023,6529 17173,6529 "/>
  <path class="fil1" d="M17563 6745c-14,-77 -47,-117 -120,-117 -96,0 -124,74 -126,117l246 0zm-246 95c4,96 51,140 135,140 61,0 110,-38 119,-72l133 0c-42,130 -133,185 -257,185 -173,0 -281,-119 -281,-289 0,-165 114,-290 281,-290 187,0 277,157 267,326l-397 0z"/>
  <path class="fil1" d="M17782 6529l143 0 0 76 3 0c39,-61 105,-91 168,-91 161,0 201,90 201,226l0 338 -151 0 0 -310c0,-90 -26,-135 -96,-135 -82,0 -117,46 -117,157l0 288 -151 0 0 -549z"/>
  <path class="fil1" d="M18582 6529l111 0 0 101 -111 0 0 272c0,51 13,64 64,64 16,0 31,-1 47,-5l0 118c-26,5 -59,6 -88,6 -93,0 -174,-21 -174,-131l0 -324 -91 0 0 -101 91 0 0 -165 151 0 0 165z"/>
 </g>
</svg>
