<?xml version="1.0" encoding="UTF-8"?>
<!DOCTYPE svg PUBLIC "-//W3C//DTD SVG 1.1//EN" "http://www.w3.org/Graphics/SVG/1.1/DTD/svg11.dtd">
<!-- Creator: CorelDRAW X7 -->
<svg xmlns="http://www.w3.org/2000/svg" xml:space="preserve" width="131.911mm" height="131.911mm" version="1.1" style="shape-rendering:geometricPrecision; text-rendering:geometricPrecision; image-rendering:optimizeQuality; fill-rule:evenodd; clip-rule:evenodd"
viewBox="0 0 13191 13191"
 xmlns:xlink="http://www.w3.org/1999/xlink">
 <defs>
  <style type="text/css">
   <![CDATA[
    .fil2 {fill:none}
    .fil0 {fill:aqua}
    .fil1 {fill:#FF2B06}
   ]]>
  </style>
   <clipPath id="id0">
    <path d="M6596 13190c3642,0 6594,-2952 6594,-6594 0,-3643 -2952,-6595 -6594,-6595 -3643,0 -6595,2952 -6595,6595 0,3642 2952,6594 6595,6594z"/>
   </clipPath>
 </defs>
 <g id="Layer_x0020_1">
  <metadata id="CorelCorpID_0Corel-Layer"/>
  <path class="fil0" d="M6596 13190c3642,0 6594,-2952 6594,-6594 0,-3643 -2952,-6595 -6594,-6595 -3643,0 -6595,2952 -6595,6595 0,3642 2952,6594 6595,6594z"/>
  <g style="clip-path:url(#id0)">
   <g id="_1851021331872">
    <polygon id="1" class="fil1" points="3106,6666 10085,6666 11270,13450 1836,13450 "/>
    <g>
     <path class="fil0" d="M6596 1697c1692,0 3063,1372 3063,3064 0,1692 -1371,3064 -3063,3064 -1693,0 -3064,-1372 -3064,-3064 0,-1692 1371,-3064 3064,-3064z"/>
    </g>
    <circle class="fil1" cx="6596" cy="4761" r="2302"/>
   </g>
  </g>
  <path class="fil2" d="M6596 13190c3642,0 6594,-2952 6594,-6594 0,-3643 -2952,-6595 -6594,-6595 -3643,0 -6595,2952 -6595,6595 0,3642 2952,6594 6595,6594z"/>
 </g>
</svg>
